# xmcd CD database file
#
# Track frame offsets:
#	150
#	9798
#	24656
#	38757
#	59419
#	76179
#	94567
#	105499
#	117895
#	132598
#	147321
#	160464
#	183825
#
# Disc length: 2559 seconds
#
# Revision: 2
# Processed by: cddbd v1.5.2PL0 Copyright (c) Steve Scherf et al.
# Submitted via: CDex 1.70beta2
#
DISCID=9e09fd0d
DTITLE=Thomas Scheytt - Blues Colours
DYEAR=2013
DGENRE=Blues
TTITLE0=Thomas Scheytt - Short Story
TTITLE1=Thomas Scheytt - Lazy Bones
TTITLE2=Thomas Scheytt - Flowerstreet Express
TTITLE3=Thomas Scheytt - Out Of The Dark
TTITLE4=Thomas Scheytt - Morning Dance
TTITLE5=Thomas Scheytt - Georgia In My Mind
TTITLE6=Thomas Scheytt - Hansjakobstrasse 110
TTITLE7=Thomas Scheytt - Walking Bass
TTITLE8=Thomas Scheytt - Hello, Mary Anne
TTITLE9=Thomas Scheytt - Hiram Mutschler - Hiram's Boogie Woogie
TTITLE10=Thomas Scheytt - Put Your Hand In The Hand
TTITLE11=Thomas Scheytt - Loretto Infirmary
TTITLE12=Thomas Scheytt - Summer Night
EXTD=YEAR: 2013
EXTT0=
EXTT1=
EXTT2=
EXTT3=
EXTT4=
EXTT5=
EXTT6=
EXTT7=
EXTT8=
EXTT9=
EXTT10=
EXTT11=
EXTT12=
PLAYORDER=
